name C:\Users\u0101727\Documents\MyRepositories\upper-imu-dc\Results\main_tracking\Case_10\FLX01_orientations_groundFrame.mot
datacolumns 13
datarows 14
range 0.51000000 0.64000000
endheader 
time	radius_imu_[0][0]	radius_imu_[0][1]	radius_imu_[0][2]	radius_imu_[1][0]	radius_imu_[1][1]	radius_imu_[1][2]	radius_imu_[2][0]	radius_imu_[2][1]	radius_imu_[2][2]	radius_imu_x	radius_imu_y	radius_imu_z	
          0.51000000	          0.71872119	         -0.05684170	          0.69297105	         -0.13867677	          0.96490919	          0.22297758	         -0.68132856	         -0.25635770	          0.68561806	         -0.31443203	          0.76560187	          0.07892299	
          0.52000000	          0.71045064	         -0.05793291	          0.70135844	         -0.14119786	          0.96460630	          0.22270575	         -0.68943676	         -0.25725175	          0.67712516	         -0.31775431	          0.77730147	          0.08136387	
          0.53000000	          0.70016718	         -0.05997250	          0.71145571	         -0.14405393	          0.96410708	          0.22303812	         -0.69929564	         -0.25865196	          0.66639686	         -0.32297343	          0.79156754	          0.08544599	
          0.54000000	          0.68852253	         -0.06294528	          0.72247811	         -0.14684152	          0.96349042	          0.22388342	         -0.71019314	         -0.26023856	          0.65414187	         -0.32975858	          0.80737987	          0.09116738	
          0.55000000	          0.67578933	         -0.06698510	          0.73404480	         -0.14918095	          0.96282308	          0.22520382	         -0.72184058	         -0.26169584	          0.64067267	         -0.33802074	          0.82425905	          0.09879854	
          0.56000000	          0.66696017	         -0.07020238	          0.74177878	         -0.15097661	          0.96216628	          0.22680852	         -0.72963703	         -0.26326350	          0.63112767	         -0.34499799	          0.83571882	          0.10487108	
          0.57000000	          0.66395898	         -0.07150853	          0.74434199	         -0.15245281	          0.96156489	          0.22836614	         -0.73206326	         -0.26510278	          0.62753797	         -0.34901097	          0.83954896	          0.10728669	
          0.58000000	          0.66225168	         -0.07293682	          0.74572310	         -0.15324584	          0.96102830	          0.23008763	         -0.73344286	         -0.26665488	          0.62526534	         -0.35260550	          0.84161950	          0.10969250	
          0.59000000	          0.66168192	         -0.07499569	          0.74602459	         -0.15302722	          0.96053410	          0.23228626	         -0.73400252	         -0.26786169	          0.62409167	         -0.35631270	          0.84207213	          0.11285937	
          0.60000000	          0.66220265	         -0.07783982	          0.74527083	         -0.15173516	          0.96005544	          0.23509570	         -0.73380113	         -0.26876479	          0.62394022	         -0.36034084	          0.84094094	          0.11700988	
          0.61000000	          0.66421013	         -0.08132847	          0.74310873	         -0.14938606	          0.95957305	          0.23854428	         -0.73246755	         -0.26945361	          0.62520880	         -0.36449496	          0.83770410	          0.12183742	
          0.62000000	          0.66811876	         -0.08529358	          0.73914974	         -0.14598043	          0.95907430	          0.24262356	         -0.72959375	         -0.27000275	          0.62832434	         -0.36850463	          0.83180711	          0.12697547	
          0.63000000	          0.67421553	         -0.08962442	          0.73307631	         -0.14148641	          0.95854903	          0.24731632	         -0.72485517	         -0.27046484	          0.63358800	         -0.37215332	          0.82283401	          0.13215661	
          0.64000000	          0.68256571	         -0.09428369	          0.72471694	         -0.13586686	          0.95798516	          0.25259577	         -0.71808374	         -0.27087823	          0.64107779	         -0.37533830	          0.81062350	          0.13726269	
